<svg id="Layer_1" data-name="Layer 1" xmlns="http://www.w3.org/2000/svg" viewBox="0 0 73.587 87.211"><defs><style>.cls-1{fill:#a4c639;}</style></defs><title>Android_robot</title><path class="cls-1" d="M21.481,0.652l4.062,7.062C18.149,11.342,13.137,18.443,13.137,26.59H60.449c0-8.146-5.012-15.248-12.406-18.875l4.062-7.062A0.436,0.436,0,0,0,51.934.067a0.46,0.46,0,0,0-.609.148L47.2,7.34a25.846,25.846,0,0,0-20.812,0L22.262,0.215a0.442,0.442,0,0,0-.6-0.149,0.444,0.444,0,0,0-.184.586h0Zm4.062,13.68a2.254,2.254,0,0,1,2.25,2.25,2.25,2.25,0,0,1-4.5,0A2.254,2.254,0,0,1,25.543,14.332Zm22.5,0a2.253,2.253,0,0,1,2.25,2.25,2.25,2.25,0,0,1-4.5,0A2.254,2.254,0,0,1,48.043,14.332Z" transform="translate(0 0)"/><path class="cls-1" d="M12.947,29.344V65.236c0,1.781,2.152,4.112,3.933,4.112h5.629V81.586A5.367,5.367,0,0,0,27.6,87.211,5.367,5.367,0,0,0,32.7,81.586V69.349h8.187V81.586a5.366,5.366,0,0,0,5.094,5.625A5.391,5.391,0,0,0,51.1,81.586V69.349h5.6c1.781,0,3.934-2.331,3.934-4.112V29.344H12.947Z" transform="translate(0 0)"/><path class="cls-1" d="M5.1,28.593h0a5.381,5.381,0,0,1,5.1,5.625v21.3a5.382,5.382,0,0,1-5.1,5.625h0A5.382,5.382,0,0,1,0,55.514v-21.3A5.381,5.381,0,0,1,5.1,28.593Z" transform="translate(0 0)"/><path class="cls-1" d="M68.488,28.593h0a5.381,5.381,0,0,1,5.1,5.625v21.3a5.382,5.382,0,0,1-5.1,5.625h0a5.382,5.382,0,0,1-5.1-5.625v-21.3A5.381,5.381,0,0,1,68.488,28.593Z" transform="translate(0 0)"/></svg>