<svg id="Layer_1" data-name="Layer 1" xmlns="http://www.w3.org/2000/svg" viewBox="0 0 265.323 216.002"><defs><style>.cls-1{fill:#c10a27;}.cls-2{fill:#fff;}</style></defs><title>appc-logo-mark</title><path class="cls-1" d="M245.631,203.192L130.781,4.272a8.528,8.528,0,0,0-14.78,0L1.146,203.192A8.54,8.54,0,0,0,8.536,216h229.7A8.54,8.54,0,0,0,245.631,203.192Z"/><path class="cls-2" d="M194.9,166.782L167.22,154.671l3.042,8.064-11.281,2.1V109.1c0-24.217-19.686-28.545-36.114-28.545a323.519,323.519,0,0,0-35.256,2.164V99.155l1.514,1.514a274.775,274.775,0,0,1,30.059-2.161c12.111,0,19.03,5.619,19.03,15.357v9.728h-20.98c-19.243,0-37.623,8.214-37.623,32.649,0,24.222,14.057,30.277,28.981,30.277a34.865,34.865,0,0,0,29.19-15.139h0.864l-0.433,11.471,1.51,1.514,33.14-5.856-0.306,8.617Zm-56.683-9.02c-6.919,8.865-14.706,10.815-21.844,10.815-7.569,0-15.784-2.382-15.784-13.624,0-11.68,7.569-14.926,22.281-14.926h15.347v17.734Z"/><path class="cls-1" d="M255.6,203.976h3.5a3.427,3.427,0,0,1,1.423.256,1.817,1.817,0,0,1,1.065,1.818,2.028,2.028,0,0,1-.287,1.13,2.061,2.061,0,0,1-.795.708,1.6,1.6,0,0,1,.677.481,1.718,1.718,0,0,1,.253.97l0.034,1.032a3.212,3.212,0,0,0,.077.652,0.644,0.644,0,0,0,.334.472v0.172h-1.279a0.907,0.907,0,0,1-.083-0.257,5.771,5.771,0,0,1-.054-0.606l-0.06-1.283a1.078,1.078,0,0,0-.547-1.011,2.167,2.167,0,0,0-.909-0.142h-2.3v3.3H255.6v-7.69Zm3.387,3.523a1.908,1.908,0,0,0,1.126-.294,1.211,1.211,0,0,0,.416-1.057,1.154,1.154,0,0,0-.582-1.122,1.871,1.871,0,0,0-.83-0.156h-2.474V207.5h2.344Z"/><path class="cls-1" d="M251.733,208.058a6.8,6.8,0,0,1,6.795-6.8h0a6.8,6.8,0,0,1,6.795,6.8h0a6.8,6.8,0,0,1-6.795,6.792h0a6.793,6.793,0,0,1-6.795-6.792h0Zm1,0a5.8,5.8,0,0,0,5.79,5.79h0a5.8,5.8,0,0,0,5.785-5.79h0a5.794,5.794,0,0,0-5.785-5.79h0a5.8,5.8,0,0,0-5.79,5.79h0Z"/></svg>