<?xml version="1.0" encoding="utf-8"?>
<!-- Generator: Adobe Illustrator 19.2.1, SVG Export Plug-In . SVG Version: 6.00 Build 0)  -->
<svg version="1.1" id="Ebene_1" xmlns="http://www.w3.org/2000/svg" xmlns:xlink="http://www.w3.org/1999/xlink" x="0px" y="0px"
	 viewBox="0 0 793.6 255.8" style="enable-background:new 0 0 793.6 255.8;" xml:space="preserve">
<style type="text/css">
	.st0{fill:#666666;}
</style>
<title>smartglasses</title>
<path class="st0" d="M793.6,121.6V61.9c0-14.3-1.7-25.4-19.9-35.1c-13.6-7.2-40.3-16.1-61.6-21.6c-11.9-3.1-27.5-7.6-39.6-3.7
	c-0.3,0-0.5,0.1-0.5,0.1v1.7c0,1.7,1.3,3.2,3,3.3c30.9,2.7,76.6,20.8,94.4,47.2c3.3-3,5.5-5.7,6.7-8.1c-2.2,4.7-8.1,9.9-17.8,17.3
	c-19.7,14.9-60.8,17.3-60.8,17.3s-202.1,0.5-223.3,0.5c-21.2,0-31.3,4.6-45.7,12.2c-13.4,7.1-22.6,10.7-31.8,10.5
	c-9.2,0.1-18.3-3.4-31.8-10.5c-14.3-7.6-24.4-12.2-45.7-12.2C298.1,80.7,96,80.2,96,80.2S54.9,77.9,35.3,63
	c-9.7-7.4-15.6-12.6-17.8-17.3c1.2,2.5,3.4,5.1,6.7,8.2C42,27.4,87.6,9.3,118.6,6.6c1.7-0.1,3-1.6,3-3.3V1.6c0,0-0.2,0-0.5-0.1
	c-12.1-3.9-27.7,0.6-39.6,3.7c-21.3,5.5-48,14.4-61.6,21.6C1.8,36.5,0,47.6,0,61.9v59.7c0,3.5-3.3,34.7,45.8,83.8
	c49.1,49.1,71.4,50.4,129.5,50.4h122.9c37.5,0,41.3-2.4,57.8-42.8c10.5-25.7,14-35.1,22.8-40.9c4.6-3,11.3-4.5,18-4.5
	c6.7-0.1,13.4,1.4,18.1,4.5c8.8,5.8,12.3,15.2,22.8,40.9c16.5,40.3,20.3,42.8,57.8,42.8h122.9c58,0,80.4-1.3,129.5-50.4
	C796.9,156.3,793.6,125.1,793.6,121.6z M335.5,204.6c-10.1,24.8-10.5,29-37.3,29H175.3c-47.3,0-65.6-1.4-94.4-25.8
	c-3.8-3.1-6-7.8-5.9-12.7v-76.5c0-9.1,7.3-16.6,16.5-16.6c0.4,0,0.7,0,1.1,0c6.4,0.4,12.8,0.4,19.8,0.4c42.3,0.1,155.6,0.4,207,0.4
	C368.8,102.9,351.8,164.6,335.5,204.6z M718.6,195.2L718.6,195.2c0.1,4.9-2.1,9.6-5.9,12.7c-28.8,24.4-47.1,25.8-94.4,25.8H495.4
	c-26.8,0-27.1-4.2-37.3-29c-16.4-40-33.4-101.7,16.1-101.7c51.4,0,164.6-0.3,207-0.4c7,0,13.4-0.1,19.8-0.4
	c9.1-0.5,17,6.4,17.5,15.5c0,0.3,0,0.7,0,1V195.2z M775.3,35.7L775.3,35.7c0.5,0.8,1,1.7,1.3,2.6C776.3,37.4,775.9,36.5,775.3,35.7z
	"/>
</svg>
